<mxfile host="app.diagrams.net" modified="2024-03-27T23:24:32.314Z" agent="Mozilla/5.0 (Windows NT 10.0; Win64; x64) AppleWebKit/537.36 (KHTML, like Gecko) Chrome/123.0.0.0 Safari/537.36" etag="XS8QA0ED0XB4bfuRzYe5" version="24.2.0" type="device">
  <diagram name="Page-1" id="LUzckcQzRKHh5rznyhUE">
    <mxGraphModel dx="658" dy="351" grid="1" gridSize="10" guides="1" tooltips="1" connect="1" arrows="1" fold="1" page="1" pageScale="1" pageWidth="850" pageHeight="1100" math="0" shadow="0">
      <root>
        <mxCell id="0" />
        <mxCell id="1" parent="0" />
        <mxCell id="pRUL1WpTVWU_bJc66gz2-3" value="" style="rounded=0;whiteSpace=wrap;html=1;fillColor=#f5f5f5;fontColor=#333333;strokeColor=#666666;" vertex="1" parent="1">
          <mxGeometry x="240" y="240" width="570" height="310" as="geometry" />
        </mxCell>
        <mxCell id="pRUL1WpTVWU_bJc66gz2-5" value="" style="rounded=0;whiteSpace=wrap;html=1;" vertex="1" parent="1">
          <mxGeometry x="290" y="250" width="510" height="290" as="geometry" />
        </mxCell>
        <mxCell id="pRUL1WpTVWU_bJc66gz2-16" style="rounded=0;orthogonalLoop=1;jettySize=auto;html=1;entryX=0;entryY=0.5;entryDx=0;entryDy=0;endArrow=none;endFill=0;" edge="1" parent="1" source="pRUL1WpTVWU_bJc66gz2-4" target="pRUL1WpTVWU_bJc66gz2-6">
          <mxGeometry relative="1" as="geometry" />
        </mxCell>
        <mxCell id="pRUL1WpTVWU_bJc66gz2-22" style="rounded=0;orthogonalLoop=1;jettySize=auto;html=1;entryX=0;entryY=0.5;entryDx=0;entryDy=0;endArrow=none;endFill=0;" edge="1" parent="1" source="pRUL1WpTVWU_bJc66gz2-4" target="pRUL1WpTVWU_bJc66gz2-10">
          <mxGeometry relative="1" as="geometry" />
        </mxCell>
        <mxCell id="pRUL1WpTVWU_bJc66gz2-4" value="Actor" style="shape=umlActor;verticalLabelPosition=bottom;verticalAlign=top;html=1;outlineConnect=0;" vertex="1" parent="1">
          <mxGeometry x="250" y="365" width="30" height="60" as="geometry" />
        </mxCell>
        <mxCell id="pRUL1WpTVWU_bJc66gz2-19" style="rounded=0;orthogonalLoop=1;jettySize=auto;html=1;endArrow=none;endFill=0;entryX=0;entryY=0.341;entryDx=0;entryDy=0;entryPerimeter=0;exitX=1;exitY=0.5;exitDx=0;exitDy=0;" edge="1" parent="1" source="pRUL1WpTVWU_bJc66gz2-6" target="pRUL1WpTVWU_bJc66gz2-11">
          <mxGeometry relative="1" as="geometry" />
        </mxCell>
        <mxCell id="pRUL1WpTVWU_bJc66gz2-6" value="New Game" style="ellipse;whiteSpace=wrap;html=1;" vertex="1" parent="1">
          <mxGeometry x="320" y="275" width="90" height="40" as="geometry" />
        </mxCell>
        <mxCell id="pRUL1WpTVWU_bJc66gz2-17" value="" style="rounded=0;orthogonalLoop=1;jettySize=auto;html=1;endArrow=none;endFill=0;" edge="1" parent="1" source="pRUL1WpTVWU_bJc66gz2-7" target="pRUL1WpTVWU_bJc66gz2-11">
          <mxGeometry relative="1" as="geometry" />
        </mxCell>
        <mxCell id="pRUL1WpTVWU_bJc66gz2-7" value="Resume Game" style="ellipse;whiteSpace=wrap;html=1;" vertex="1" parent="1">
          <mxGeometry x="320" y="325" width="90" height="40" as="geometry" />
        </mxCell>
        <mxCell id="pRUL1WpTVWU_bJc66gz2-8" value="Exit Game" style="ellipse;whiteSpace=wrap;html=1;" vertex="1" parent="1">
          <mxGeometry x="320" y="375" width="90" height="40" as="geometry" />
        </mxCell>
        <mxCell id="pRUL1WpTVWU_bJc66gz2-9" value="Data Reset" style="ellipse;whiteSpace=wrap;html=1;" vertex="1" parent="1">
          <mxGeometry x="440" y="472.5" width="90" height="40" as="geometry" />
        </mxCell>
        <mxCell id="pRUL1WpTVWU_bJc66gz2-23" style="rounded=0;orthogonalLoop=1;jettySize=auto;html=1;entryX=0;entryY=0.5;entryDx=0;entryDy=0;endArrow=none;endFill=0;" edge="1" parent="1" source="pRUL1WpTVWU_bJc66gz2-10" target="pRUL1WpTVWU_bJc66gz2-21">
          <mxGeometry relative="1" as="geometry" />
        </mxCell>
        <mxCell id="pRUL1WpTVWU_bJc66gz2-24" style="rounded=0;orthogonalLoop=1;jettySize=auto;html=1;endArrow=none;endFill=0;" edge="1" parent="1" source="pRUL1WpTVWU_bJc66gz2-10" target="pRUL1WpTVWU_bJc66gz2-9">
          <mxGeometry relative="1" as="geometry" />
        </mxCell>
        <mxCell id="pRUL1WpTVWU_bJc66gz2-10" value="Options" style="ellipse;whiteSpace=wrap;html=1;" vertex="1" parent="1">
          <mxGeometry x="325" y="450" width="80" height="40" as="geometry" />
        </mxCell>
        <mxCell id="pRUL1WpTVWU_bJc66gz2-29" style="edgeStyle=none;rounded=0;orthogonalLoop=1;jettySize=auto;html=1;entryX=0;entryY=0.5;entryDx=0;entryDy=0;endArrow=none;endFill=0;" edge="1" parent="1" source="pRUL1WpTVWU_bJc66gz2-11" target="pRUL1WpTVWU_bJc66gz2-26">
          <mxGeometry relative="1" as="geometry" />
        </mxCell>
        <mxCell id="pRUL1WpTVWU_bJc66gz2-30" style="edgeStyle=none;rounded=0;orthogonalLoop=1;jettySize=auto;html=1;entryX=0;entryY=0.5;entryDx=0;entryDy=0;endArrow=none;endFill=0;" edge="1" parent="1" source="pRUL1WpTVWU_bJc66gz2-11" target="pRUL1WpTVWU_bJc66gz2-27">
          <mxGeometry relative="1" as="geometry" />
        </mxCell>
        <mxCell id="pRUL1WpTVWU_bJc66gz2-11" value="Playing Game" style="ellipse;whiteSpace=wrap;html=1;" vertex="1" parent="1">
          <mxGeometry x="460" y="300" width="80" height="40" as="geometry" />
        </mxCell>
        <mxCell id="pRUL1WpTVWU_bJc66gz2-13" style="rounded=0;orthogonalLoop=1;jettySize=auto;html=1;entryX=0;entryY=0.5;entryDx=0;entryDy=0;endArrow=none;endFill=0;" edge="1" parent="1" source="pRUL1WpTVWU_bJc66gz2-4" target="pRUL1WpTVWU_bJc66gz2-8">
          <mxGeometry relative="1" as="geometry" />
        </mxCell>
        <mxCell id="pRUL1WpTVWU_bJc66gz2-15" style="rounded=0;orthogonalLoop=1;jettySize=auto;html=1;entryX=0;entryY=0.5;entryDx=0;entryDy=0;endArrow=none;endFill=0;" edge="1" parent="1" source="pRUL1WpTVWU_bJc66gz2-4" target="pRUL1WpTVWU_bJc66gz2-7">
          <mxGeometry relative="1" as="geometry" />
        </mxCell>
        <mxCell id="pRUL1WpTVWU_bJc66gz2-21" value="Sound Control" style="ellipse;whiteSpace=wrap;html=1;" vertex="1" parent="1">
          <mxGeometry x="440" y="427.5" width="90" height="40" as="geometry" />
        </mxCell>
        <mxCell id="pRUL1WpTVWU_bJc66gz2-33" style="edgeStyle=none;rounded=0;orthogonalLoop=1;jettySize=auto;html=1;endArrow=none;endFill=0;" edge="1" parent="1" source="pRUL1WpTVWU_bJc66gz2-25" target="pRUL1WpTVWU_bJc66gz2-32">
          <mxGeometry relative="1" as="geometry" />
        </mxCell>
        <mxCell id="pRUL1WpTVWU_bJc66gz2-25" value="Game Stages" style="ellipse;whiteSpace=wrap;html=1;" vertex="1" parent="1">
          <mxGeometry x="580" y="260" width="90" height="40" as="geometry" />
        </mxCell>
        <mxCell id="pRUL1WpTVWU_bJc66gz2-26" value="Puzzle Objects" style="ellipse;whiteSpace=wrap;html=1;" vertex="1" parent="1">
          <mxGeometry x="580" y="310" width="90" height="40" as="geometry" />
        </mxCell>
        <mxCell id="pRUL1WpTVWU_bJc66gz2-27" value="Game Instructions" style="ellipse;whiteSpace=wrap;html=1;" vertex="1" parent="1">
          <mxGeometry x="580" y="365" width="100" height="40" as="geometry" />
        </mxCell>
        <mxCell id="pRUL1WpTVWU_bJc66gz2-28" style="edgeStyle=none;rounded=0;orthogonalLoop=1;jettySize=auto;html=1;entryX=0.047;entryY=0.632;entryDx=0;entryDy=0;entryPerimeter=0;endArrow=none;endFill=0;" edge="1" parent="1" source="pRUL1WpTVWU_bJc66gz2-11" target="pRUL1WpTVWU_bJc66gz2-25">
          <mxGeometry relative="1" as="geometry" />
        </mxCell>
        <mxCell id="pRUL1WpTVWU_bJc66gz2-32" value="Complete Game" style="ellipse;whiteSpace=wrap;html=1;" vertex="1" parent="1">
          <mxGeometry x="700" y="260" width="90" height="40" as="geometry" />
        </mxCell>
      </root>
    </mxGraphModel>
  </diagram>
</mxfile>
